# xmcd
#
# Track frame offsets: 
#        150
#        18050
#        32628
#        45302
#        57169
#        68884
#        84712
#        100624
#        112677
#        126559
#        137032
#        149246
#        167393
#
# Disc length: 2396 seconds
#
# Revision: 0
# Processed by: cddbd v1.4PL0 Copyright (c) Steve Scherf et al.
# Submitted via: ExactAudioCopy v0.90a11
#
DISCID=a8095a0d
DTITLE=Ike and Tina Turner - The Great Ike and Tina Turner - Disc 2
DYEAR=1900
DGENRE=
TTITLE0=River Deep Mountain High
TTITLE1=If You Can Hully Gully
TTITLE2=Becha Can't Kiss Me (Just One Time)
TTITLE3=I Need A Man
TTITLE4=I Wanna Jump
TTITLE5=I Can't Stop Loving You
TTITLE6=Living For The City
TTITLE7=Use Me
TTITLE8=Sweet Rhode Island Red
TTITLE9=The Loco-Motion
TTITLE10=Stagger Lee
TTITLE11=Sugar Sugar
TTITLE12=I'm Movin' On
EXTD=
EXTT0=
EXTT1=
EXTT2=
EXTT3=
EXTT4=
EXTT5=
EXTT6=
EXTT7=
EXTT8=
EXTT9=
EXTT10=
EXTT11=
EXTT12=
PLAYORDER=
